<?xml version="1.0" encoding="utf-8"?>
<!-- Generator: Adobe Illustrator 28.1.0, SVG Export Plug-In . SVG Version: 6.00 Build 0)  -->
<svg version="1.1" id="Layer_1" xmlns="http://www.w3.org/2000/svg" xmlns:xlink="http://www.w3.org/1999/xlink" x="0px" y="0px"
	 viewBox="0 0 931.1 931.1" style="enable-background:new 0 0 931.1 931.1;" xml:space="preserve">
<style type="text/css">
	.st0{fill:#FFFFFF;}
	.st1{fill:#8ECAE6;}
	.st2{fill:none;stroke:#229EBC;stroke-width:5.89;stroke-miterlimit:10;}
	.st3{fill:#229EBC;}
	.st4{fill:#023047;}
	.st5{fill:#023047;stroke:#229EBC;stroke-width:2.94;stroke-miterlimit:10;}
	.st6{fill:#023047;stroke:#229EBC;stroke-width:3.04;stroke-miterlimit:10;}
	.st7{fill:#023047;stroke:#229EBC;stroke-width:3;stroke-miterlimit:10;}
	.st8{fill:#023047;stroke:#229EBC;stroke-width:2.99;stroke-miterlimit:10;}
	.st9{fill:#023047;stroke:#229EBC;stroke-width:2.4;stroke-miterlimit:10;}
	.st10{fill:#023047;stroke:#229EBC;stroke-width:2.38;stroke-miterlimit:10;}
	.st11{fill:#023047;stroke:#229EBC;stroke-width:2.67;stroke-miterlimit:10;}
	.st12{fill:#023047;stroke:#229EBC;stroke-width:2.63;stroke-miterlimit:10;}
</style>
<circle class="st0" cx="465.6" cy="465.5" r="462.7"/>
<g>
	<path class="st1" d="M928.3,465.5c0,37.7-4.5,74.3-13,109.3c-16.2,1.2-32.7,2.4-49.2,3.4c10.1-35.9,15.5-73.7,15.5-112.8
		c0-229.7-186.2-415.8-415.8-415.8S49.8,235.9,49.8,465.5c0,16.7,0.9,34.9,2.8,51c-18.3-7.2-34.6-14.7-48.7-22.3
		c-0.6-9.5-0.9-19.1-0.9-28.7C3.1,210.1,210.2,3,465.7,3S928.3,210.1,928.3,465.5L928.3,465.5z"/>
	<g>
		<polyline class="st2" points="347,627.2 107.3,665.1 108.8,758.6 		"/>
		<polygon class="st2" points="394.8,583.3 438.5,790.5 562.4,685.1 448.7,585.3 		"/>
		<polyline class="st2" points="781.8,712.9 725.1,651.1 562.4,685.1 		"/>
		<line class="st2" x1="450.3" y1="795.7" x2="595.1" y2="873.6"/>
	</g>
	<path class="st3" d="M881.4,465.5c0,39.1-5.4,76.9-15.5,112.8c0,0-0.1,0-0.1,0c-133.2,8.5-275.7,10.8-426.2,6.8
		c-158.7-4.2-297.1-33-387.1-68.6c-1.9-16.2-2.8-34.3-2.8-51.1c0-229.7,186.2-415.8,415.9-415.8S881.4,235.9,881.4,465.5
		L881.4,465.5z"/>
	<path class="st3" d="M865.9,578.3L865.9,578.3l-0.1,0C865.8,578.3,865.9,578.3,865.9,578.3z"/>
	<circle class="st1" cx="566.5" cy="323.6" r="181.9"/>
	<path class="st3" d="M680.4,282.6c2.9,23-12.4,60.5-76.9,41c-16.7-5-50.5-28.6-47.8-67.4c2-29,26-47.7,59.4-41.1
		C656.8,223.2,676.5,251.4,680.4,282.6z"/>
	<path class="st1" d="M414.4,118.4c15,7.9,37,25.8-6.6,53.1c-11.3,7-52.3,20.2-74.3-1.4c-16.4-16.1-16.8-34.7,3.7-50.7
		C362.6,99.5,392.3,106.8,414.4,118.4L414.4,118.4z"/>
	<path class="st1" d="M202.1,388.3c-8.4,11.4-40.2,22.1-40.8-29.3c-0.1-13.3,3.5-53.3,33.4-60.9c22.3-5.6,36.7,12.5,36.7,32.7
		S210.5,376.9,202.1,388.3L202.1,388.3z"/>
	<circle class="st1" cx="229.9" cy="201.4" r="22.9"/>
	<circle class="st1" cx="273.4" cy="244.9" r="10.9"/>
	<circle class="st1" cx="126" cy="416.4" r="14.1"/>
	<path class="st4" d="M465.7,586.8c-4-0.1-17.4,0.2-21.4,0.1c-12-0.3-23.9-0.8-35.7-1.4c-26.2-53.1-93.8-191.7-61.1-294.5
		c12.4-38.9,16.2-64.7,1.5-43.2c-18.8,27.6-49.5,72.4-20.6,177.8c20.3,74,41.4,130.9,52.2,158.2c-18.9-1.3-37.5-2.9-55.6-4.9
		c-30.5-73.8-38.4-201.8-38.8-216.8c-0.4-18.2,1.1-28.5-3.1-28.3c-4.2,0.3-8.9,17.9-10.6,32.6c-1.6,13.1-1.9,149.1,4.7,206.4
		c-10.7-1.5-21.2-3.2-31.5-4.9c-5-100.4,5.7-192.7,10.9-216.8c5.1-24,25.2-39.8,32.4-35.9c7.2,3.8,12.6,8.1,17.5,5.3
		c4.8-2.8,2-11.7,4.3-21.9c10.1-62,41.4-75.9,48.5-80.7c7.1-4.8,43.4-19.8,35,0c-8.4,19.8-24.9,56.7-27.2,105.1
		C364.9,370.1,368.7,428.3,465.7,586.8L465.7,586.8z"/>
	<path class="st4" d="M765,583c-8.6,0.3-20.7,0.7-29.4,0.9c45.1-103.9,58-142.9,62.4-174c5.1-36.2,0.6-91.7-10.4-70.9
		c-8.9,16.7,1.8,94.8-79.2,245.8c-5.7,0.2-29.4,0.3-35.1,0.4c33.8-78.5,67.1-121.6,80.6-174.3s13.2-100,15.7-115.1s3-30.8,18-10
		C801.4,305.1,879.8,399.2,765,583L765,583z"/>
	<circle class="st2" cx="465.5" cy="465.5" r="462.6"/>
	<circle class="st2" cx="465.5" cy="465.5" r="462.6"/>
	<path class="st2" d="M7.2,528.9c18.9,16.5,179,191.3,433.5,197.9C695.3,733.4,904,613.5,904,613.5"/>
	<path class="st2" d="M19.5,587.1c45.2,46.7,196.3,197.3,421.3,203.1c200.5,5.2,376.7-86.5,442.5-125.7"/>
	<path class="st2" d="M56,680.9c71.5,65.8,212.4,173.6,384.8,173.6s328.1-85.9,414.1-139.6"/>
	<path class="st2" d="M120.3,773.5c77.4,58.2,189.8,119.2,320.4,119.2s267.5-57,358.8-107.2"/>
	<line class="st2" x1="426.8" y1="925.8" x2="450.3" y2="585.5"/>
	<path class="st2" d="M711.1,585.3c-32.9,89.8-127.2,268.2-284.3,341.3"/>
	<path class="st2" d="M428,924.8c70.6-82.2,127.4-236.1,151.7-337.7"/>
	<path class="st2" d="M426.8,926.5c281.9-45.7,394.4-269.9,425.1-347.1"/>
	<path class="st2" d="M328.6,578.1c11.1,82.1,43.5,240.8,98.2,348.5"/>
	<path class="st2" d="M204.6,559.6c19.2,81.4,70.1,236.5,222.1,366.9"/>
	<path class="st2" d="M426.8,926.5C163.3,847.9,61.9,626.2,36.7,510.1"/>
	<circle class="st5" cx="438.5" cy="789.5" r="37.2"/>
	<ellipse transform="matrix(0.866 -0.5 0.5 0.866 -343.597 246.8921)" class="st6" cx="288.9" cy="764.6" rx="18.5" ry="23.2"/>
	<circle class="st5" cx="555.2" cy="683.6" r="20"/>
	<ellipse transform="matrix(0.4673 -0.8841 0.8841 0.4673 -187.386 989.0212)" class="st7" cx="727" cy="650" rx="15.9" ry="12.8"/>
	
		<ellipse transform="matrix(0.7071 -0.7071 0.7071 0.7071 -353.1151 731.4849)" class="st8" cx="706.4" cy="792" rx="23.2" ry="17.8"/>
	
		<ellipse transform="matrix(0.938 -0.3466 0.3466 0.938 -265.3554 259.0593)" class="st9" cx="591.6" cy="871.4" rx="20" ry="13.3"/>
	
		<ellipse transform="matrix(0.6343 -0.7731 0.7731 0.6343 -265.1141 862.8989)" class="st10" cx="779.6" cy="711.7" rx="18.3" ry="14.3"/>
	<circle class="st5" cx="335.7" cy="628" r="20"/>
	
		<ellipse transform="matrix(0.9744 -0.2248 0.2248 0.9744 -147.2146 40.6774)" class="st11" cx="105" cy="666.9" rx="25.9" ry="31.5"/>
	<ellipse transform="matrix(0.5 -0.866 0.866 0.5 -604.3833 680.0266)" class="st12" cx="286.7" cy="863.4" rx="15.7" ry="22.4"/>
	<path class="st4" d="M7.6,504.6c-0.3-4.1-1.1-17.2-1.1-17.2c70.2,38.3,225.9,85,433.4,90.5c168.1,4.5,326.9,1.1,473.9-10.2
		c0,0-2,14.9-3.6,15c-104.6,7.9-214.7,11.8-330.4,11.8c-46,0-92.8-0.6-140.3-1.9C271.4,588.1,103.6,553.7,7.6,504.6"/>
</g>
</svg>
